<svg width="72" height="54" viewBox="0 0 72 54" fill="none" xmlns="http://www.w3.org/2000/svg">
<path d="M57.375 31.5V23.625H49.5V16.875H57.375V9H64.125V16.875H72V23.625H64.125V31.5H57.375ZM27 27C23.25 27 20.0625 25.6875 17.4375 23.0625C14.8125 20.4375 13.5 17.25 13.5 13.5C13.5 9.75 14.8125 6.5625 17.4375 3.9375C20.0625 1.3125 23.25 0 27 0C30.75 0 33.9375 1.3125 36.5625 3.9375C39.1875 6.5625 40.5 9.75 40.5 13.5C40.5 17.25 39.1875 20.4375 36.5625 23.0625C33.9375 25.6875 30.75 27 27 27ZM0 54V45.375C0 43.7637 0.390625 42.2828 1.17188 40.9322C1.95312 39.5816 3.03125 38.5 4.40625 37.6875C7.84375 35.6875 11.4688 34.1562 15.2812 33.0938C19.0938 32.0312 23 31.5 27 31.5C31 31.5 34.9062 32.0312 38.7188 33.0938C42.5312 34.1562 46.1562 35.6875 49.5938 37.6875C50.9688 38.5 52.0469 39.5816 52.8281 40.9322C53.6094 42.2828 54 43.7637 54 45.375V54H0Z" fill="white"/>
</svg>
