<svg width="72" height="72" viewBox="0 0 72 72" fill="none" xmlns="http://www.w3.org/2000/svg">
<path d="M45.375 50.9062L50.1562 46.125L39.375 35.4122V20.25H32.625V38.25L45.375 50.9062ZM32.625 13.5H39.375V6.75H32.625V13.5ZM58.5 39.375H65.25V32.625H58.5V39.375ZM32.625 65.25H39.375V58.5H32.625V65.25ZM6.75 39.375H13.5V32.625H6.75V39.375ZM36 72C31.0387 72 26.3766 71.0625 22.0134 69.1875C17.6503 67.3125 13.8281 64.7344 10.5469 61.4531C7.26562 58.1719 4.6875 54.345 2.8125 49.9725C0.9375 45.6 0 40.9281 0 35.9569C0 30.9856 0.9375 26.3125 2.8125 21.9375C4.6875 17.5625 7.26562 13.75 10.5469 10.5C13.8281 7.25 17.655 4.6875 22.0275 2.8125C26.4 0.9375 31.0719 0 36.0431 0C41.0144 0 45.6878 0.944999 50.0634 2.835C54.4384 4.725 58.2444 7.29 61.4812 10.53C64.7175 13.77 67.2797 17.58 69.1678 21.96C71.0559 26.34 72 31.02 72 36C72 40.9613 71.0625 45.6234 69.1875 49.9866C67.3125 54.3497 64.75 58.1719 61.5 61.4531C58.25 64.7344 54.4334 67.3125 50.0503 69.1875C45.6672 71.0625 40.9837 72 36 72Z" fill="white"/>
</svg>
