<svg width="21" height="20" viewBox="0 0 21 20" fill="none" xmlns="http://www.w3.org/2000/svg">
<path d="M10.4999 19.6C9.18324 19.6 7.94157 19.35 6.7749 18.85C5.60824 18.35 4.5874 17.6625 3.7124 16.7875C2.8374 15.9125 2.1499 14.8917 1.6499 13.725C1.1499 12.5584 0.899902 11.3167 0.899902 10C0.899902 8.66669 1.1499 7.42086 1.6499 6.26252C2.1499 5.10419 2.8374 4.08752 3.7124 3.21252C4.5874 2.33752 5.60824 1.65002 6.7749 1.15002C7.94157 0.650024 9.18324 0.400024 10.4999 0.400024C11.8332 0.400024 13.0791 0.650024 14.2374 1.15002C15.3957 1.65002 16.4124 2.33752 17.2874 3.21252C18.1624 4.08752 18.8499 5.10419 19.3499 6.26252C19.8499 7.42086 20.0999 8.66669 20.0999 10C20.0999 11.3167 19.8499 12.5584 19.3499 13.725C18.8499 14.8917 18.1624 15.9125 17.2874 16.7875C16.4124 17.6625 15.3957 18.35 14.2374 18.85C13.0791 19.35 11.8332 19.6 10.4999 19.6ZM10.4999 17.725C10.7832 17.4417 11.0666 16.9125 11.3499 16.1375C11.6332 15.3625 11.8499 14.5167 11.9999 13.6H8.9999C9.1499 14.5167 9.36657 15.3625 9.6499 16.1375C9.93324 16.9125 10.2166 17.4417 10.4999 17.725ZM8.2249 17.475C7.99157 16.975 7.7874 16.4 7.6124 15.75C7.4374 15.1 7.29157 14.3834 7.1749 13.6H3.5999C4.08324 14.55 4.7249 15.3625 5.5249 16.0375C6.3249 16.7125 7.2249 17.1917 8.2249 17.475ZM12.7749 17.475C13.7749 17.1917 14.6749 16.7125 15.4749 16.0375C16.2749 15.3625 16.9166 14.55 17.3999 13.6H13.8249C13.7082 14.3834 13.5624 15.1 13.3874 15.75C13.2124 16.4 13.0082 16.975 12.7749 17.475ZM2.9249 11.8H6.9499C6.91657 11.4834 6.89574 11.1709 6.8874 10.8625C6.87907 10.5542 6.8749 10.25 6.8749 9.95002C6.8749 9.65002 6.87907 9.35419 6.8874 9.06252C6.89574 8.77086 6.91657 8.48336 6.9499 8.20002H2.9249C2.84157 8.51669 2.78324 8.82086 2.7499 9.11252C2.71657 9.40419 2.6999 9.70002 2.6999 10C2.6999 10.3 2.71657 10.5959 2.7499 10.8875C2.78324 11.1792 2.84157 11.4834 2.9249 11.8ZM8.7749 11.8H12.2249C12.2582 11.4667 12.2791 11.1542 12.2874 10.8625C12.2957 10.5709 12.2999 10.2834 12.2999 10C12.2999 9.71669 12.2957 9.42502 12.2874 9.12502C12.2791 8.82502 12.2582 8.51669 12.2249 8.20002H8.7749C8.74157 8.51669 8.72074 8.82502 8.7124 9.12502C8.70407 9.42502 8.6999 9.71669 8.6999 10C8.6999 10.2834 8.70407 10.575 8.7124 10.875C8.72074 11.175 8.74157 11.4834 8.7749 11.8ZM14.0499 11.8H18.0749C18.1582 11.4834 18.2166 11.1792 18.2499 10.8875C18.2832 10.5959 18.2999 10.3 18.2999 10C18.2999 9.70002 18.2832 9.40002 18.2499 9.10002C18.2166 8.80002 18.1582 8.50002 18.0749 8.20002H14.0499C14.0832 8.51669 14.1041 8.82919 14.1124 9.13752C14.1207 9.44586 14.1249 9.75002 14.1249 10.05C14.1249 10.35 14.1207 10.6459 14.1124 10.9375C14.1041 11.2292 14.0832 11.5167 14.0499 11.8ZM13.8249 6.40002H17.3999C16.9166 5.45002 16.2749 4.63752 15.4749 3.96252C14.6749 3.28752 13.7749 2.80836 12.7749 2.52502C13.0082 3.02502 13.2124 3.60002 13.3874 4.25002C13.5624 4.90002 13.7082 5.61669 13.8249 6.40002ZM8.9999 6.40002H11.9999C11.8499 5.48336 11.6332 4.63752 11.3499 3.86252C11.0666 3.08752 10.7832 2.55836 10.4999 2.27502C10.2166 2.55836 9.93324 3.08752 9.6499 3.86252C9.36657 4.63752 9.1499 5.48336 8.9999 6.40002ZM3.5999 6.40002H7.1749C7.29157 5.61669 7.4374 4.90002 7.6124 4.25002C7.7874 3.60002 7.99157 3.02502 8.2249 2.52502C7.2249 2.80836 6.3249 3.28752 5.5249 3.96252C4.7249 4.63752 4.08324 5.45002 3.5999 6.40002Z" fill="#2B2C30"/>
</svg>
