<svg width="59" height="72" viewBox="0 0 59 72" fill="none" xmlns="http://www.w3.org/2000/svg">
<path d="M29.6864 36C31.5482 36 33.1354 35.3372 34.4479 34.0116C35.7604 32.6859 36.4167 31.0922 36.4167 29.2303C36.4167 27.3684 35.7539 25.7812 34.4282 24.4688C33.1026 23.1562 31.5089 22.5 29.647 22.5C27.7851 22.5 26.1979 23.1628 24.8854 24.4884C23.5729 25.8141 22.9167 27.4078 22.9167 29.2697C22.9167 31.1316 23.5795 32.7188 24.9051 34.0312C26.2307 35.3438 27.8245 36 29.6864 36ZM29.6667 72C19.8554 63.8056 12.5276 56.1947 7.68325 49.1672C2.83887 42.1391 0.416687 35.5938 0.416687 29.5312C0.416687 21.1562 3.19794 14.1406 8.76044 8.48438C14.3229 2.82812 21.2761 0 29.6198 0C37.9636 0 44.9323 2.82812 50.5261 8.48438C56.1198 14.1406 58.9167 21.1562 58.9167 29.5312C58.9167 35.5938 56.5104 42.125 51.6979 49.125C46.8854 56.125 39.5417 63.75 29.6667 72Z" fill="white"/>
</svg>
