<svg width="64" height="64" viewBox="0 0 64 64" fill="none" xmlns="http://www.w3.org/2000/svg">
<path d="M59.0521 63.5L36.6459 41.0938C34.7709 42.4688 32.7149 43.5469 30.4781 44.3281C28.2412 45.1094 25.8606 45.5 23.3362 45.5C17.0843 45.5 11.7709 43.3125 7.39587 38.9375C3.02087 34.5625 0.833374 29.25 0.833374 23C0.833374 16.75 3.02087 11.4375 7.39587 7.0625C11.7709 2.6875 17.0834 0.5 23.3334 0.5C29.5834 0.5 34.8959 2.6875 39.2709 7.0625C43.6459 11.4375 45.8334 16.7509 45.8334 23.0028C45.8334 25.5272 45.4427 27.9078 44.6615 30.1447C43.8802 32.3816 42.8021 34.4375 41.4271 36.3125L63.8334 58.7188L59.0521 63.5ZM23.3334 38.75C27.7084 38.75 31.4271 37.2188 34.4896 34.1562C37.5521 31.0938 39.0834 27.375 39.0834 23C39.0834 18.625 37.5521 14.9062 34.4896 11.8438C31.4271 8.78125 27.7084 7.25 23.3334 7.25C18.9584 7.25 15.2396 8.78125 12.1771 11.8438C9.11462 14.9062 7.58337 18.625 7.58337 23C7.58337 27.375 9.11462 31.0938 12.1771 34.1562C15.2396 37.2188 18.9584 38.75 23.3334 38.75Z" fill="white"/>
</svg>
